<?xml version="1.0" encoding="UTF-8"?>
<svg width="32" height="32" viewBox="0 0 32 32" fill="none" xmlns="http://www.w3.org/2000/svg">
  <rect width="32" height="32" rx="16" fill="#1F2937"/>
  <path d="M24 12C24 12 22 10 19 10C16 10 14 12 14 12" stroke="#F59E0B" stroke-width="2" stroke-linecap="round"/>
  <path d="M8 13C8 10.7909 9.79086 9 12 9H20C22.2091 9 24 10.7909 24 13V17C24 21.4183 20.4183 25 16 25C11.5817 25 8 21.4183 8 17V13Z" fill="#374151"/>
  <circle cx="13" cy="15" r="2" fill="white"/>
  <circle cx="13" cy="15" r="1" fill="#111827"/>
  <circle cx="19" cy="15" r="2" fill="white"/>
  <circle cx="19" cy="15" r="1" fill="#111827"/>
  <path d="M14 19C14 19 15 20 16 20C17 20 18 19 18 19" stroke="#F59E0B" stroke-width="1.5" stroke-linecap="round"/>
</svg>